<svg width="128" height="128" xmlns="http://www.w3.org/2000/svg">

 <g>
  <title>background</title>
  <rect fill="none" id="canvas_background" height="402" width="582" y="-1" x="-1"/>
 </g>
 <g>
  <title>Layer 1</title>
  <path fill="#ffa600" id="svg_3" d="m96.389,103.948997c-0.165001,6.396004 -5.052002,10.778 -11.293999,11.185005c-1.594002,0.103996 -3.220001,0.014 -4.815002,0.014c-7.568001,0 -15.137001,0 -22.704998,0c-3.292,0 -6.584999,0 -9.876999,0c-2.029003,0 -4.076,0.098999 -6.077003,-0.297005c-5.280998,-1.045998 -9.119999,-5.541 -9.119999,-10.939995c0,-1.012001 0,-2.025002 0,-3.037003c0,-24.859001 0,-49.718002 0,-74.577011c0,-4.946999 2.735001,-9.27099 7.049,-11.605999c2.311001,-1.251 4.812,-1.190001 7.332001,-1.190001c7.18,0 14.359001,0 21.538998,0c5.328003,0 10.656006,0 15.984001,0c5.888,0 10.479004,4.707001 11.748001,10.19401c0.327003,1.41 0.236,2.940001 0.236,4.385c0,25.09199 0,50.184999 0,75.277002c0,0.196999 0,0.393997 0,0.591995c0,1.935005 3,1.935005 3,0c0,-24.450996 0,-48.901997 0,-73.352997c0,-5.124001 -0.059998,-9.854 -3.403999,-14.205c-2.745003,-3.572001 -7.084999,-5.891001 -11.621002,-5.891001c-1.812996,0 -3.626999,0 -5.439995,0c-7.735001,0 -15.470005,0 -23.205002,0c-5.072002,0 -11.259003,-0.854 -16.132,0.912c-6.971001,2.527 -10.087002,9.387 -10.087002,16.341001c0,5.038 0,10.075998 0,15.114c0,15.602001 0,31.203999 0,46.804996c0,4.491005 0,8.983002 0,13.474007c0,8.176994 5.542,14.062996 13.641998,14.945c5.028,0.546997 10.341003,0.056999 15.386002,0.056999c7.457001,0 14.914001,0 22.371002,0c2.854996,0 5.618996,0.075996 8.403999,-0.735001c6.082001,-1.770004 9.925995,-7.255005 10.085999,-13.464005c0.049004,-1.935997 -2.950996,-1.931 -3,0z"/>
  <path id="svg_4" stroke-width="3" stroke-miterlimit="10" stroke="#ffa600" fill-rule="evenodd" fill="none" d="m67.415001,107.197998c0,1.917 -1.555,3.473 -3.473,3.473l0,0c-1.917,0 -3.473,-1.555 -3.473,-3.473l0,0c0,-1.917 1.556,-3.473 3.473,-3.473l0,0c1.917999,0.000999 3.473,1.556 3.473,3.473l0,0z" clip-rule="evenodd"/>
  <rect id="svg_5" y="25.67" x="37.537" width="53.815" stroke-width="3" stroke-miterlimit="10" stroke="#ffa600" height="71.594" fill-rule="evenodd" fill="none" clip-rule="evenodd"/>
  <path fill="#ffa600" id="svg_7" fill-rule="evenodd" d="m72.653,19.542c0,0.756001 -0.900002,1.375 -2,1.375l-12.417,0c-1.099998,0 -2,-0.618999 -2,-1.375c0,-0.757 0.900002,-1.375 2,-1.375l12.417,0c1.099998,0 2,0.618 2,1.375z" clip-rule="evenodd"/>
 </g>
</svg>